<svg xmlns="http://www.w3.org/2000/svg" viewBox="0 0 930 600" role="img" aria-label="RUNLU logo">
  <defs>
    <radialGradient id="bg" cx="50%" cy="44%" r="61%">
      <stop offset="0" stop-color="#ffffff"/>
      <stop offset="0.56" stop-color="#f9fdff"/>
      <stop offset="0.78" stop-color="#a9e9f2"/>
      <stop offset="0.91" stop-color="#2b91bb"/>
      <stop offset="1" stop-color="#173d70"/>
    </radialGradient>
    <linearGradient id="shine" x1="0" y1="0" x2="0" y2="1">
      <stop offset="0" stop-color="#ffffff" stop-opacity="0.86"/>
      <stop offset="1" stop-color="#ffffff" stop-opacity="0"/>
    </linearGradient>
    <clipPath id="oval"><ellipse cx="465" cy="300" rx="446" ry="278"/></clipPath>
  </defs>
  <rect width="930" height="600" fill="#ffffff"/>
  <ellipse cx="465" cy="300" rx="452" ry="284" fill="#ffffff" stroke="#102f5c" stroke-width="13"/>
  <ellipse cx="465" cy="300" rx="430" ry="263" fill="url(#bg)" stroke="#61c9dd" stroke-width="8"/>
  <g clip-path="url(#oval)">
    <ellipse cx="465" cy="128" rx="350" ry="111" fill="url(#shine)"/>
    <path d="M109 353 C180 202 293 105 397 73" fill="none" stroke="#ffffff" stroke-opacity="0.38" stroke-width="18" stroke-linecap="round"/>
    <path d="M821 353 C750 202 637 105 533 73" fill="none" stroke="#ffffff" stroke-opacity="0.3" stroke-width="18" stroke-linecap="round"/>
  </g>
  <path d="M465 82 C425 137 395 181 395 226 C395 274 423 307 465 307 C508 307 536 274 536 226 C536 181 505 137 465 82 Z" fill="none" stroke="#171b22" stroke-width="24" stroke-linejoin="round"/>
  <path d="M404 258 C404 258 403 327 386 350" fill="none" stroke="#171b22" stroke-width="24" stroke-linecap="round"/>
  <text x="465" y="482" text-anchor="middle" font-family="Arial Black, Arial, Helvetica, sans-serif" font-size="174" font-weight="900" letter-spacing="8" fill="#171b22">RUNLU</text>
</svg>
